<svg width="438" height="347" viewBox="0 0 438 347" fill="none" xmlns="http://www.w3.org/2000/svg">
<g clip-path="url(#clip0_111_86)">
<rect width="438" height="347" fill="white"/>
<rect x="23.5" y="23.5" width="401" height="310" stroke="black"/>
<rect x="334" y="53" width="90" height="29" fill="black"/>
<rect x="23" y="53" width="90" height="29" fill="black"/>
<rect x="334" y="110" width="90" height="29" fill="black"/>
<rect x="23" y="110" width="90" height="29" fill="black"/>
<rect x="180" y="64" width="90" height="28" fill="black"/>
<rect x="334" y="166" width="90" height="29" fill="black"/>
<rect x="23" y="166" width="90" height="29" fill="black"/>
<rect x="180" y="133" width="90" height="28" fill="black"/>
<rect x="335" y="223" width="90" height="29" fill="black"/>
<rect x="24" y="223" width="90" height="29" fill="black"/>
<rect x="180" y="200" width="90" height="28" fill="black"/>
<rect x="335" y="279" width="90" height="29" fill="black"/>
<rect x="24" y="279" width="90" height="29" fill="black"/>
<rect x="180" y="269" width="90" height="28" fill="black"/>
<rect id="chair-21" class="seat chair" x="254" y="297" width="14" height="10" fill="#D9D9D9"/>
<rect id="chair-22" class="seat chair" x="254" y="228" width="14" height="10" fill="#D9D9D9"/>
<rect id="chair-23" class="seat chair" x="254" y="161" width="14" height="10" fill="#D9D9D9"/>
<rect id="chair-24" class="seat chair" x="254" y="92" width="14" height="10" fill="#D9D9D9"/>
<rect id="chair-25" class="seat chair" x="254" y="259" width="14" height="10" fill="#D9D9D9"/>
<rect id="chair-26" class="seat chair" x="254" y="190" width="14" height="10" fill="#D9D9D9"/>
<rect id="chair-27" class="seat chair" x="254" y="123" width="14" height="10" fill="#D9D9D9"/>
<rect id="chair-28" class="seat chair" x="254" y="54" width="14" height="10" fill="#D9D9D9"/>
<rect id="chair-29" class="seat chair" x="236" y="297" width="14" height="10" fill="#D9D9D9"/>
<rect id="chair-30" class="seat chair" x="236" y="228" width="14" height="10" fill="#D9D9D9"/>
<rect id="chair-31" class="seat chair" x="236" y="161" width="14" height="10" fill="#D9D9D9"/>
<rect id="chair-32" class="seat chair" x="236" y="92" width="14" height="10" fill="#D9D9D9"/>
<rect id="chair-33" class="seat chair" x="236" y="259" width="14" height="10" fill="#D9D9D9"/>
<rect id="chair-34" class="seat chair" x="236" y="190" width="14" height="10" fill="#D9D9D9"/>
<rect id="chair-35" class="seat chair" x="236" y="123" width="14" height="10" fill="#D9D9D9"/>
<rect id="chair-36" class="seat chair" x="236" y="54" width="14" height="10" fill="#D9D9D9"/>
<rect id="chair-37" class="seat chair" x="218" y="297" width="14" height="10" fill="#D9D9D9"/>
<rect id="chair-38" class="seat chair" x="218" y="228" width="14" height="10" fill="#D9D9D9"/>
<rect id="chair-39" class="seat chair" x="218" y="161" width="14" height="10" fill="#D9D9D9"/>
<rect id="chair-40" class="seat chair" x="218" y="92" width="14" height="10" fill="#D9D9D9"/>
<rect id="chair-41" class="seat chair" x="218" y="259" width="14" height="10" fill="#D9D9D9"/>
<rect id="chair-42" class="seat chair" x="218" y="190" width="14" height="10" fill="#D9D9D9"/>
<rect id="chair-43" class="seat chair" x="218" y="123" width="14" height="10" fill="#D9D9D9"/>
<rect id="chair-44" class="seat chair" x="218" y="54" width="14" height="10" fill="#D9D9D9"/>
<rect id="chair-45" class="seat chair" x="200" y="297" width="14" height="10" fill="#D9D9D9"/>
<rect id="chair-46" class="seat chair" x="200" y="228" width="14" height="10" fill="#D9D9D9"/>
<rect id="chair-47" class="seat chair" x="200" y="161" width="14" height="10" fill="#D9D9D9"/>
<rect id="chair-48" class="seat chair" x="200" y="92" width="14" height="10" fill="#D9D9D9"/>
<rect id="chair-49" class="seat chair" x="200" y="259" width="14" height="10" fill="#D9D9D9"/>
<rect id="chair-50" class="seat chair" x="200" y="190" width="14" height="10" fill="#D9D9D9"/>
<rect id="chair-51" class="seat chair" x="200" y="123" width="14" height="10" fill="#D9D9D9"/>
<rect id="chair-52" class="seat chair" x="200" y="54" width="14" height="10" fill="#D9D9D9"/>
<rect id="chair-53" class="seat chair" x="182" y="297" width="14" height="10" fill="#D9D9D9"/>
<rect id="chair-54" class="seat chair" x="182" y="228" width="14" height="10" fill="#D9D9D9"/>
<rect id="chair-55" class="seat chair" x="182" y="161" width="14" height="10" fill="#D9D9D9"/>
<rect id="chair-56" class="seat chair" x="182" y="92" width="14" height="10" fill="#D9D9D9"/>
<rect id="chair-57" class="seat chair" x="182" y="259" width="14" height="10" fill="#D9D9D9"/>
<rect id="chair-58" class="seat chair" x="182" y="190" width="14" height="10" fill="#D9D9D9"/>
<rect id="chair-59" class="seat chair" x="182" y="123" width="14" height="10" fill="#D9D9D9"/>
<rect id="chair-60" class="seat chair" x="182" y="54" width="14" height="10" fill="#D9D9D9"/>
<rect id="bench-1" class="seat bench" x="30" y="43" width="78" height="10" fill="#D9D9D9"/>
<rect id="bench-2" class="seat bench" x="30" y="82" width="78" height="10" fill="#D9D9D9"/>
<rect id="bench-3" class="seat bench" x="30" y="100" width="78" height="10" fill="#D9D9D9"/>
<rect id="bench-4" class="seat bench" x="30" y="156" width="78" height="10" fill="#D9D9D9"/>
<rect id="bench-5" class="seat bench" x="341" y="156" width="78" height="10" fill="#D9D9D9"/>
<rect id="bench-6" class="seat bench" x="340" y="43" width="78" height="10" fill="#D9D9D9"/>
<rect id="bench-7" class="seat bench" x="30" y="213" width="78" height="10" fill="#D9D9D9"/>
<rect id="bench-8" class="seat bench" x="30" y="269" width="78" height="10" fill="#D9D9D9"/>
<rect id="bench-9" class="seat bench" x="341" y="269" width="78" height="10" fill="#D9D9D9"/>
<rect id="bench-10" class="seat bench" x="341" y="213" width="78" height="10" fill="#D9D9D9"/>
<rect id="bench-11" class="seat bench" x="340" y="100" width="78" height="10" fill="#D9D9D9"/>
<rect id="bench-12" class="seat bench" x="30" y="139" width="78" height="10" fill="#D9D9D9"/>
<rect id="bench-13" class="seat bench" x="30" y="195" width="78" height="10" fill="#D9D9D9"/>
<rect id="bench-14" class="seat bench" x="341" y="195" width="78" height="10" fill="#D9D9D9"/>
<rect id="bench-15" class="seat bench" x="340" y="82" width="78" height="10" fill="#D9D9D9"/>
<rect id="bench-16" class="seat bench" x="30" y="252" width="78" height="10" fill="#D9D9D9"/>
<rect id="bench-17" class="seat bench" x="30" y="308" width="78" height="10" fill="#D9D9D9"/>
<rect id="bench-18" class="seat bench" x="341" y="308" width="78" height="10" fill="#D9D9D9"/>
<rect id="bench-19" class="seat bench" x="341" y="252" width="78" height="10" fill="#D9D9D9"/>
<rect id="bench-20" class="seat bench" x="340" y="139" width="78" height="10" fill="#D9D9D9"/>
</g>
<defs>
<clipPath id="clip0_111_86">
<rect width="438" height="347" fill="white"/>
</clipPath>
</defs>
</svg>